<svg width="166" height="44" viewBox="0 0 166 44" fill="none" xmlns="http://www.w3.org/2000/svg">
<mask id="path-1-outside-1_124_1301" maskUnits="userSpaceOnUse" x="0.09375" y="-0.0546875" width="166" height="45" fill="black">
<rect fill="white" x="0.09375" y="-0.0546875" width="166" height="45"/>
<path d="M5.72266 12.5273L11.4883 12.1406L13.0234 14.6367L14.3711 11.1797L18.1094 11.0859L22.5273 31.6289L15.707 30.9609L14.4648 23.9531L13.1172 26.543L11.3008 23.2852L10.7148 29.2266L4.09375 29.707L5.72266 12.5273Z"/>
<path d="M19.8438 18.5742L24.543 16.3711L29.2539 25.1016L32.1367 17.0391L37.3164 19.0547L28.5859 40.1719L23.9688 38.4492L26.6641 31.1484L19.8438 18.5742Z"/>
<path d="M46.0391 11.3789C46.9844 11.0664 47.8711 10.7773 48.6992 10.5117C49.5352 10.2461 50.4141 9.99609 51.3359 9.76172C52.2578 9.51953 53.1406 9.32812 53.9844 9.1875C54.6328 9.07812 55.2969 9.02344 55.9766 9.02344C57.1094 9.02344 57.8516 9.05469 58.2031 9.11719C58.7344 9.21875 59.2344 9.38281 59.7031 9.60938C60.1797 9.83594 60.6016 10.1406 60.9688 10.5234C61.3438 10.8984 61.6484 11.3438 61.8828 11.8594C61.9766 12.0703 62.0234 12.293 62.0234 12.5273C62.0234 13.4023 61.543 14.4805 60.582 15.7617C59.6289 17.043 58.668 18.1602 57.6992 19.1133C56.7383 20.0664 56.0195 20.75 55.543 21.1641L57.6523 28.5586L54.582 30.7734L49.2031 15.4102C49.1875 15.4102 49.1133 15.4844 48.9805 15.6328C48.8477 15.7812 48.6719 15.9766 48.4531 16.2188C48.2422 16.4531 48.1094 16.5977 48.0547 16.6523C48.0312 16.6523 47.9531 16.4844 47.8203 16.1484C47.6953 15.8125 47.5234 15.3477 47.3047 14.7539C47.0938 14.1523 46.8555 13.4883 46.5898 12.7617C46.3164 12.0273 46.1328 11.5664 46.0391 11.3789ZM53.6211 14.6367L54.582 18.0938C55.0664 17.6016 55.668 16.9297 56.3867 16.0781C57.1055 15.2266 57.4648 14.6094 57.4648 14.2266C57.4648 14.0781 57.4023 13.9922 57.2773 13.9688C56.9258 13.8906 56.5781 13.8516 56.2344 13.8516C55.2031 13.8516 54.332 14.1133 53.6211 14.6367Z"/>
<path d="M74.0642 17.3086C74.6189 17.6055 75.0681 18.0078 75.4119 18.5156C75.7634 19.0156 76.0173 19.582 76.1736 20.2148C76.3377 20.8398 76.4197 21.4922 76.4197 22.1719C76.4197 22.7344 76.3728 23.2773 76.2791 23.8008C76.1931 24.3242 76.072 24.8047 75.9158 25.2422C75.7595 25.6797 75.5759 26.0508 75.365 26.3555C74.8728 27.0898 74.3455 27.7227 73.783 28.2539C73.2205 28.7852 72.6462 29.2148 72.0603 29.543C71.4744 29.8633 70.8923 30.0977 70.3142 30.2461C69.7439 30.4023 69.1775 30.4805 68.615 30.4805C67.9509 30.4805 67.3181 30.375 66.7166 30.1641C66.1228 29.9609 65.615 29.6914 65.1931 29.3555C64.4978 28.7773 63.9548 28 63.5642 27.0234C63.1736 26.0391 62.9783 25 62.9783 23.9062C62.9783 22.0234 63.5212 20.5039 64.6072 19.3477C65.5369 18.3555 66.4978 17.6094 67.49 17.1094C68.4822 16.6016 69.4978 16.3477 70.5369 16.3477C71.1462 16.3477 71.7322 16.4258 72.2947 16.582C72.8572 16.7305 73.447 16.9727 74.0642 17.3086ZM73.3728 19.2773C73.24 19.8711 72.9509 20.3945 72.5056 20.8477C72.0681 21.3008 71.6384 21.5273 71.2166 21.5273C71.0056 21.5273 70.8181 21.4727 70.6541 21.3633C70.4197 21.1758 70.3025 20.8477 70.3025 20.3789C70.3025 20.0195 70.4197 19.6641 70.6541 19.3125C70.8962 18.9609 71.2752 18.6836 71.7908 18.4805C71.2752 18.4805 70.7752 18.5781 70.2908 18.7734C69.8142 18.9688 69.4041 19.2227 69.0603 19.5352C68.7166 19.8398 68.4392 20.1875 68.2283 20.5781C68.0252 20.9609 67.9236 21.3477 67.9236 21.7383C67.9236 22.4648 68.2595 23.043 68.9314 23.4727C69.5564 23.8711 70.1502 24.0703 70.7127 24.0703C71.2673 24.0703 71.7595 23.8867 72.1892 23.5195C72.6189 23.1445 72.947 22.668 73.1736 22.0898C73.4002 21.5039 73.5134 20.9258 73.5134 20.3555C73.5134 19.9648 73.4666 19.6055 73.3728 19.2773Z"/>
<path d="M77.7144 10.418L83.6675 7.92188L84.5347 21.457L89.4331 18.7734L94.5191 19.5352L87.8862 24.6211L94.1323 29.332L94.4136 34.0312L85.2027 27.4102L85.4956 33.1641L79.9175 33.2695L78.8628 12.9141L77.1402 13.3008L77.7144 10.418Z"/>
<path d="M105.915 23.5195L108.74 26.9297C108.513 27.5859 107.974 28.1875 107.122 28.7344C106.279 29.2812 105.271 29.7109 104.099 30.0234C102.935 30.3438 101.771 30.5039 100.607 30.5039C99.5755 30.5039 98.6536 30.3672 97.8411 30.0938C97.0364 29.8203 96.4153 29.4062 95.9778 28.8516C95.22 27.8984 94.8411 26.6797 94.8411 25.1953C94.8411 24.0234 95.052 22.8711 95.4739 21.7383C95.9036 20.5977 96.3567 19.8008 96.8333 19.3477C97.4036 18.8086 98.0208 18.3594 98.6848 18C99.3567 17.6406 100.052 17.3711 100.771 17.1914C101.49 17.0117 102.228 16.9219 102.986 16.9219C103.978 16.9219 104.919 17.082 105.81 17.4023C106.708 17.7148 107.493 18.1719 108.165 18.7734L101.732 26.4492C102.302 26.4492 102.841 26.332 103.349 26.0977C103.865 25.8555 104.337 25.5156 104.767 25.0781C105.197 24.6328 105.579 24.1133 105.915 23.5195ZM102.669 20.7891C102.286 20.5938 101.896 20.4961 101.497 20.4961C101.075 20.4961 100.665 20.582 100.267 20.7539C99.8763 20.9258 99.5989 21.1289 99.4348 21.3633C98.9505 21.9883 98.7083 22.6758 98.7083 23.4258C98.7083 23.6992 98.7356 23.9609 98.7903 24.2109C98.845 24.4609 98.9388 24.8047 99.0716 25.2422L102.669 20.7891ZM96.6458 12.3398L102.892 8.88281L105.575 13.0078L97.9934 14.4492L96.6458 12.3398Z"/>
<path d="M118.132 18.5273C117.702 18.582 117.276 18.7188 116.855 18.9375C116.44 19.1562 116.085 19.4141 115.788 19.7109C115.491 20.0078 115.257 20.3359 115.085 20.6953C114.921 21.0469 114.839 21.3945 114.839 21.7383C114.839 22.4492 115.175 23.0273 115.847 23.4727C116.44 23.8711 117.042 24.0703 117.651 24.0703C117.769 24.0703 117.929 24.0547 118.132 24.0234V21.5273C117.921 21.5273 117.733 21.4727 117.569 21.3633C117.335 21.1758 117.218 20.8164 117.218 20.2852C117.218 19.5195 117.522 18.9336 118.132 18.5273ZM118.026 7.14844L122.925 4.94531L123.218 20.8125C123.28 21.2188 123.312 21.6797 123.312 22.1953C123.312 22.6484 123.296 22.9844 123.265 23.2031L123.405 30.3867L118.132 30.668V29.9531C117.272 30.3047 116.405 30.4805 115.53 30.4805C114.858 30.4805 114.226 30.3789 113.632 30.1758C113.046 29.9727 112.538 29.6992 112.108 29.3555C111.413 28.7773 110.87 28 110.48 27.0234C110.089 26.0391 109.894 25 109.894 23.9062C109.894 22.0234 110.437 20.5039 111.522 19.3477C112.46 18.3633 113.425 17.6172 114.417 17.1094C115.417 16.6016 116.437 16.3477 117.476 16.3477C117.765 16.3477 117.983 16.3555 118.132 16.3711L118.026 7.14844Z"/>
<path d="M136.395 23.5195L139.22 26.9297C138.993 27.5859 138.454 28.1875 137.602 28.7344C136.759 29.2812 135.751 29.7109 134.579 30.0234C133.415 30.3438 132.251 30.5039 131.087 30.5039C130.055 30.5039 129.134 30.3672 128.321 30.0938C127.516 29.8203 126.895 29.4062 126.458 28.8516C125.7 27.8984 125.321 26.6797 125.321 25.1953C125.321 24.0234 125.532 22.8711 125.954 21.7383C126.384 20.5977 126.837 19.8008 127.313 19.3477C127.884 18.8086 128.501 18.3594 129.165 18C129.837 17.6406 130.532 17.3711 131.251 17.1914C131.97 17.0117 132.708 16.9219 133.466 16.9219C134.458 16.9219 135.399 17.082 136.29 17.4023C137.188 17.7148 137.973 18.1719 138.645 18.7734L132.212 26.4492C132.782 26.4492 133.321 26.332 133.829 26.0977C134.345 25.8555 134.817 25.5156 135.247 25.0781C135.677 24.6328 136.059 24.1133 136.395 23.5195ZM133.149 20.7891C132.766 20.5938 132.376 20.4961 131.977 20.4961C131.555 20.4961 131.145 20.582 130.747 20.7539C130.356 20.9258 130.079 21.1289 129.915 21.3633C129.43 21.9883 129.188 22.6758 129.188 23.4258C129.188 23.6992 129.216 23.9609 129.27 24.2109C129.325 24.4609 129.419 24.8047 129.552 25.2422L133.149 20.7891Z"/>
<path d="M149.233 27.7734L146.397 31.4414L140.35 31.6289L146.21 23.8828L139.588 15.3164L146.01 15.5977L149.233 19.8516L152.444 15.5977L158.878 15.3164L152.256 23.8828L158.116 31.6289L152.057 31.4414L149.233 27.7734Z"/>
</mask>
<path d="M5.72266 12.5273L11.4883 12.1406L13.0234 14.6367L14.3711 11.1797L18.1094 11.0859L22.5273 31.6289L15.707 30.9609L14.4648 23.9531L13.1172 26.543L11.3008 23.2852L10.7148 29.2266L4.09375 29.707L5.72266 12.5273Z" fill="#FFCB05"/>
<path d="M19.8438 18.5742L24.543 16.3711L29.2539 25.1016L32.1367 17.0391L37.3164 19.0547L28.5859 40.1719L23.9688 38.4492L26.6641 31.1484L19.8438 18.5742Z" fill="#FFCB05"/>
<path d="M46.0391 11.3789C46.9844 11.0664 47.8711 10.7773 48.6992 10.5117C49.5352 10.2461 50.4141 9.99609 51.3359 9.76172C52.2578 9.51953 53.1406 9.32812 53.9844 9.1875C54.6328 9.07812 55.2969 9.02344 55.9766 9.02344C57.1094 9.02344 57.8516 9.05469 58.2031 9.11719C58.7344 9.21875 59.2344 9.38281 59.7031 9.60938C60.1797 9.83594 60.6016 10.1406 60.9688 10.5234C61.3438 10.8984 61.6484 11.3438 61.8828 11.8594C61.9766 12.0703 62.0234 12.293 62.0234 12.5273C62.0234 13.4023 61.543 14.4805 60.582 15.7617C59.6289 17.043 58.668 18.1602 57.6992 19.1133C56.7383 20.0664 56.0195 20.75 55.543 21.1641L57.6523 28.5586L54.582 30.7734L49.2031 15.4102C49.1875 15.4102 49.1133 15.4844 48.9805 15.6328C48.8477 15.7812 48.6719 15.9766 48.4531 16.2188C48.2422 16.4531 48.1094 16.5977 48.0547 16.6523C48.0312 16.6523 47.9531 16.4844 47.8203 16.1484C47.6953 15.8125 47.5234 15.3477 47.3047 14.7539C47.0938 14.1523 46.8555 13.4883 46.5898 12.7617C46.3164 12.0273 46.1328 11.5664 46.0391 11.3789ZM53.6211 14.6367L54.582 18.0938C55.0664 17.6016 55.668 16.9297 56.3867 16.0781C57.1055 15.2266 57.4648 14.6094 57.4648 14.2266C57.4648 14.0781 57.4023 13.9922 57.2773 13.9688C56.9258 13.8906 56.5781 13.8516 56.2344 13.8516C55.2031 13.8516 54.332 14.1133 53.6211 14.6367Z" fill="#FFCB05"/>
<path d="M74.0642 17.3086C74.6189 17.6055 75.0681 18.0078 75.4119 18.5156C75.7634 19.0156 76.0173 19.582 76.1736 20.2148C76.3377 20.8398 76.4197 21.4922 76.4197 22.1719C76.4197 22.7344 76.3728 23.2773 76.2791 23.8008C76.1931 24.3242 76.072 24.8047 75.9158 25.2422C75.7595 25.6797 75.5759 26.0508 75.365 26.3555C74.8728 27.0898 74.3455 27.7227 73.783 28.2539C73.2205 28.7852 72.6462 29.2148 72.0603 29.543C71.4744 29.8633 70.8923 30.0977 70.3142 30.2461C69.7439 30.4023 69.1775 30.4805 68.615 30.4805C67.9509 30.4805 67.3181 30.375 66.7166 30.1641C66.1228 29.9609 65.615 29.6914 65.1931 29.3555C64.4978 28.7773 63.9548 28 63.5642 27.0234C63.1736 26.0391 62.9783 25 62.9783 23.9062C62.9783 22.0234 63.5212 20.5039 64.6072 19.3477C65.5369 18.3555 66.4978 17.6094 67.49 17.1094C68.4822 16.6016 69.4978 16.3477 70.5369 16.3477C71.1462 16.3477 71.7322 16.4258 72.2947 16.582C72.8572 16.7305 73.447 16.9727 74.0642 17.3086ZM73.3728 19.2773C73.24 19.8711 72.9509 20.3945 72.5056 20.8477C72.0681 21.3008 71.6384 21.5273 71.2166 21.5273C71.0056 21.5273 70.8181 21.4727 70.6541 21.3633C70.4197 21.1758 70.3025 20.8477 70.3025 20.3789C70.3025 20.0195 70.4197 19.6641 70.6541 19.3125C70.8962 18.9609 71.2752 18.6836 71.7908 18.4805C71.2752 18.4805 70.7752 18.5781 70.2908 18.7734C69.8142 18.9688 69.4041 19.2227 69.0603 19.5352C68.7166 19.8398 68.4392 20.1875 68.2283 20.5781C68.0252 20.9609 67.9236 21.3477 67.9236 21.7383C67.9236 22.4648 68.2595 23.043 68.9314 23.4727C69.5564 23.8711 70.1502 24.0703 70.7127 24.0703C71.2673 24.0703 71.7595 23.8867 72.1892 23.5195C72.6189 23.1445 72.947 22.668 73.1736 22.0898C73.4002 21.5039 73.5134 20.9258 73.5134 20.3555C73.5134 19.9648 73.4666 19.6055 73.3728 19.2773Z" fill="#FFCB05"/>
<path d="M77.7144 10.418L83.6675 7.92188L84.5347 21.457L89.4331 18.7734L94.5191 19.5352L87.8862 24.6211L94.1323 29.332L94.4136 34.0312L85.2027 27.4102L85.4956 33.1641L79.9175 33.2695L78.8628 12.9141L77.1402 13.3008L77.7144 10.418Z" fill="#FFCB05"/>
<path d="M105.915 23.5195L108.74 26.9297C108.513 27.5859 107.974 28.1875 107.122 28.7344C106.279 29.2812 105.271 29.7109 104.099 30.0234C102.935 30.3438 101.771 30.5039 100.607 30.5039C99.5755 30.5039 98.6536 30.3672 97.8411 30.0938C97.0364 29.8203 96.4153 29.4062 95.9778 28.8516C95.22 27.8984 94.8411 26.6797 94.8411 25.1953C94.8411 24.0234 95.052 22.8711 95.4739 21.7383C95.9036 20.5977 96.3567 19.8008 96.8333 19.3477C97.4036 18.8086 98.0208 18.3594 98.6848 18C99.3567 17.6406 100.052 17.3711 100.771 17.1914C101.49 17.0117 102.228 16.9219 102.986 16.9219C103.978 16.9219 104.919 17.082 105.81 17.4023C106.708 17.7148 107.493 18.1719 108.165 18.7734L101.732 26.4492C102.302 26.4492 102.841 26.332 103.349 26.0977C103.865 25.8555 104.337 25.5156 104.767 25.0781C105.197 24.6328 105.579 24.1133 105.915 23.5195ZM102.669 20.7891C102.286 20.5938 101.896 20.4961 101.497 20.4961C101.075 20.4961 100.665 20.582 100.267 20.7539C99.8763 20.9258 99.5989 21.1289 99.4348 21.3633C98.9505 21.9883 98.7083 22.6758 98.7083 23.4258C98.7083 23.6992 98.7356 23.9609 98.7903 24.2109C98.845 24.4609 98.9388 24.8047 99.0716 25.2422L102.669 20.7891ZM96.6458 12.3398L102.892 8.88281L105.575 13.0078L97.9934 14.4492L96.6458 12.3398Z" fill="#FFCB05"/>
<path d="M118.132 18.5273C117.702 18.582 117.276 18.7188 116.855 18.9375C116.44 19.1562 116.085 19.4141 115.788 19.7109C115.491 20.0078 115.257 20.3359 115.085 20.6953C114.921 21.0469 114.839 21.3945 114.839 21.7383C114.839 22.4492 115.175 23.0273 115.847 23.4727C116.44 23.8711 117.042 24.0703 117.651 24.0703C117.769 24.0703 117.929 24.0547 118.132 24.0234V21.5273C117.921 21.5273 117.733 21.4727 117.569 21.3633C117.335 21.1758 117.218 20.8164 117.218 20.2852C117.218 19.5195 117.522 18.9336 118.132 18.5273ZM118.026 7.14844L122.925 4.94531L123.218 20.8125C123.28 21.2188 123.312 21.6797 123.312 22.1953C123.312 22.6484 123.296 22.9844 123.265 23.2031L123.405 30.3867L118.132 30.668V29.9531C117.272 30.3047 116.405 30.4805 115.53 30.4805C114.858 30.4805 114.226 30.3789 113.632 30.1758C113.046 29.9727 112.538 29.6992 112.108 29.3555C111.413 28.7773 110.87 28 110.48 27.0234C110.089 26.0391 109.894 25 109.894 23.9062C109.894 22.0234 110.437 20.5039 111.522 19.3477C112.46 18.3633 113.425 17.6172 114.417 17.1094C115.417 16.6016 116.437 16.3477 117.476 16.3477C117.765 16.3477 117.983 16.3555 118.132 16.3711L118.026 7.14844Z" fill="#FFCB05"/>
<path d="M136.395 23.5195L139.22 26.9297C138.993 27.5859 138.454 28.1875 137.602 28.7344C136.759 29.2812 135.751 29.7109 134.579 30.0234C133.415 30.3438 132.251 30.5039 131.087 30.5039C130.055 30.5039 129.134 30.3672 128.321 30.0938C127.516 29.8203 126.895 29.4062 126.458 28.8516C125.7 27.8984 125.321 26.6797 125.321 25.1953C125.321 24.0234 125.532 22.8711 125.954 21.7383C126.384 20.5977 126.837 19.8008 127.313 19.3477C127.884 18.8086 128.501 18.3594 129.165 18C129.837 17.6406 130.532 17.3711 131.251 17.1914C131.97 17.0117 132.708 16.9219 133.466 16.9219C134.458 16.9219 135.399 17.082 136.29 17.4023C137.188 17.7148 137.973 18.1719 138.645 18.7734L132.212 26.4492C132.782 26.4492 133.321 26.332 133.829 26.0977C134.345 25.8555 134.817 25.5156 135.247 25.0781C135.677 24.6328 136.059 24.1133 136.395 23.5195ZM133.149 20.7891C132.766 20.5938 132.376 20.4961 131.977 20.4961C131.555 20.4961 131.145 20.582 130.747 20.7539C130.356 20.9258 130.079 21.1289 129.915 21.3633C129.43 21.9883 129.188 22.6758 129.188 23.4258C129.188 23.6992 129.216 23.9609 129.27 24.2109C129.325 24.4609 129.419 24.8047 129.552 25.2422L133.149 20.7891Z" fill="#FFCB05"/>
<path d="M149.233 27.7734L146.397 31.4414L140.35 31.6289L146.21 23.8828L139.588 15.3164L146.01 15.5977L149.233 19.8516L152.444 15.5977L158.878 15.3164L152.256 23.8828L158.116 31.6289L152.057 31.4414L149.233 27.7734Z" fill="#FFCB05"/>
<path d="M5.72266 12.5273L11.4883 12.1406L13.0234 14.6367L14.3711 11.1797L18.1094 11.0859L22.5273 31.6289L15.707 30.9609L14.4648 23.9531L13.1172 26.543L11.3008 23.2852L10.7148 29.2266L4.09375 29.707L5.72266 12.5273Z" stroke="#2E3553" stroke-width="6" mask="url(#path-1-outside-1_124_1301)"/>
<path d="M19.8438 18.5742L24.543 16.3711L29.2539 25.1016L32.1367 17.0391L37.3164 19.0547L28.5859 40.1719L23.9688 38.4492L26.6641 31.1484L19.8438 18.5742Z" stroke="#2E3553" stroke-width="6" mask="url(#path-1-outside-1_124_1301)"/>
<path d="M46.0391 11.3789C46.9844 11.0664 47.8711 10.7773 48.6992 10.5117C49.5352 10.2461 50.4141 9.99609 51.3359 9.76172C52.2578 9.51953 53.1406 9.32812 53.9844 9.1875C54.6328 9.07812 55.2969 9.02344 55.9766 9.02344C57.1094 9.02344 57.8516 9.05469 58.2031 9.11719C58.7344 9.21875 59.2344 9.38281 59.7031 9.60938C60.1797 9.83594 60.6016 10.1406 60.9688 10.5234C61.3438 10.8984 61.6484 11.3438 61.8828 11.8594C61.9766 12.0703 62.0234 12.293 62.0234 12.5273C62.0234 13.4023 61.543 14.4805 60.582 15.7617C59.6289 17.043 58.668 18.1602 57.6992 19.1133C56.7383 20.0664 56.0195 20.75 55.543 21.1641L57.6523 28.5586L54.582 30.7734L49.2031 15.4102C49.1875 15.4102 49.1133 15.4844 48.9805 15.6328C48.8477 15.7812 48.6719 15.9766 48.4531 16.2188C48.2422 16.4531 48.1094 16.5977 48.0547 16.6523C48.0312 16.6523 47.9531 16.4844 47.8203 16.1484C47.6953 15.8125 47.5234 15.3477 47.3047 14.7539C47.0938 14.1523 46.8555 13.4883 46.5898 12.7617C46.3164 12.0273 46.1328 11.5664 46.0391 11.3789ZM53.6211 14.6367L54.582 18.0938C55.0664 17.6016 55.668 16.9297 56.3867 16.0781C57.1055 15.2266 57.4648 14.6094 57.4648 14.2266C57.4648 14.0781 57.4023 13.9922 57.2773 13.9688C56.9258 13.8906 56.5781 13.8516 56.2344 13.8516C55.2031 13.8516 54.332 14.1133 53.6211 14.6367Z" stroke="#2E3553" stroke-width="6" mask="url(#path-1-outside-1_124_1301)"/>
<path d="M74.0642 17.3086C74.6189 17.6055 75.0681 18.0078 75.4119 18.5156C75.7634 19.0156 76.0173 19.582 76.1736 20.2148C76.3377 20.8398 76.4197 21.4922 76.4197 22.1719C76.4197 22.7344 76.3728 23.2773 76.2791 23.8008C76.1931 24.3242 76.072 24.8047 75.9158 25.2422C75.7595 25.6797 75.5759 26.0508 75.365 26.3555C74.8728 27.0898 74.3455 27.7227 73.783 28.2539C73.2205 28.7852 72.6462 29.2148 72.0603 29.543C71.4744 29.8633 70.8923 30.0977 70.3142 30.2461C69.7439 30.4023 69.1775 30.4805 68.615 30.4805C67.9509 30.4805 67.3181 30.375 66.7166 30.1641C66.1228 29.9609 65.615 29.6914 65.1931 29.3555C64.4978 28.7773 63.9548 28 63.5642 27.0234C63.1736 26.0391 62.9783 25 62.9783 23.9062C62.9783 22.0234 63.5212 20.5039 64.6072 19.3477C65.5369 18.3555 66.4978 17.6094 67.49 17.1094C68.4822 16.6016 69.4978 16.3477 70.5369 16.3477C71.1462 16.3477 71.7322 16.4258 72.2947 16.582C72.8572 16.7305 73.447 16.9727 74.0642 17.3086ZM73.3728 19.2773C73.24 19.8711 72.9509 20.3945 72.5056 20.8477C72.0681 21.3008 71.6384 21.5273 71.2166 21.5273C71.0056 21.5273 70.8181 21.4727 70.6541 21.3633C70.4197 21.1758 70.3025 20.8477 70.3025 20.3789C70.3025 20.0195 70.4197 19.6641 70.6541 19.3125C70.8962 18.9609 71.2752 18.6836 71.7908 18.4805C71.2752 18.4805 70.7752 18.5781 70.2908 18.7734C69.8142 18.9688 69.4041 19.2227 69.0603 19.5352C68.7166 19.8398 68.4392 20.1875 68.2283 20.5781C68.0252 20.9609 67.9236 21.3477 67.9236 21.7383C67.9236 22.4648 68.2595 23.043 68.9314 23.4727C69.5564 23.8711 70.1502 24.0703 70.7127 24.0703C71.2673 24.0703 71.7595 23.8867 72.1892 23.5195C72.6189 23.1445 72.947 22.668 73.1736 22.0898C73.4002 21.5039 73.5134 20.9258 73.5134 20.3555C73.5134 19.9648 73.4666 19.6055 73.3728 19.2773Z" stroke="#2E3553" stroke-width="6" mask="url(#path-1-outside-1_124_1301)"/>
<path d="M77.7144 10.418L83.6675 7.92188L84.5347 21.457L89.4331 18.7734L94.5191 19.5352L87.8862 24.6211L94.1323 29.332L94.4136 34.0312L85.2027 27.4102L85.4956 33.1641L79.9175 33.2695L78.8628 12.9141L77.1402 13.3008L77.7144 10.418Z" stroke="#2E3553" stroke-width="6" mask="url(#path-1-outside-1_124_1301)"/>
<path d="M105.915 23.5195L108.74 26.9297C108.513 27.5859 107.974 28.1875 107.122 28.7344C106.279 29.2812 105.271 29.7109 104.099 30.0234C102.935 30.3438 101.771 30.5039 100.607 30.5039C99.5755 30.5039 98.6536 30.3672 97.8411 30.0938C97.0364 29.8203 96.4153 29.4062 95.9778 28.8516C95.22 27.8984 94.8411 26.6797 94.8411 25.1953C94.8411 24.0234 95.052 22.8711 95.4739 21.7383C95.9036 20.5977 96.3567 19.8008 96.8333 19.3477C97.4036 18.8086 98.0208 18.3594 98.6848 18C99.3567 17.6406 100.052 17.3711 100.771 17.1914C101.49 17.0117 102.228 16.9219 102.986 16.9219C103.978 16.9219 104.919 17.082 105.81 17.4023C106.708 17.7148 107.493 18.1719 108.165 18.7734L101.732 26.4492C102.302 26.4492 102.841 26.332 103.349 26.0977C103.865 25.8555 104.337 25.5156 104.767 25.0781C105.197 24.6328 105.579 24.1133 105.915 23.5195ZM102.669 20.7891C102.286 20.5938 101.896 20.4961 101.497 20.4961C101.075 20.4961 100.665 20.582 100.267 20.7539C99.8763 20.9258 99.5989 21.1289 99.4348 21.3633C98.9505 21.9883 98.7083 22.6758 98.7083 23.4258C98.7083 23.6992 98.7356 23.9609 98.7903 24.2109C98.845 24.4609 98.9388 24.8047 99.0716 25.2422L102.669 20.7891ZM96.6458 12.3398L102.892 8.88281L105.575 13.0078L97.9934 14.4492L96.6458 12.3398Z" stroke="#2E3553" stroke-width="6" mask="url(#path-1-outside-1_124_1301)"/>
<path d="M118.132 18.5273C117.702 18.582 117.276 18.7188 116.855 18.9375C116.44 19.1562 116.085 19.4141 115.788 19.7109C115.491 20.0078 115.257 20.3359 115.085 20.6953C114.921 21.0469 114.839 21.3945 114.839 21.7383C114.839 22.4492 115.175 23.0273 115.847 23.4727C116.44 23.8711 117.042 24.0703 117.651 24.0703C117.769 24.0703 117.929 24.0547 118.132 24.0234V21.5273C117.921 21.5273 117.733 21.4727 117.569 21.3633C117.335 21.1758 117.218 20.8164 117.218 20.2852C117.218 19.5195 117.522 18.9336 118.132 18.5273ZM118.026 7.14844L122.925 4.94531L123.218 20.8125C123.28 21.2188 123.312 21.6797 123.312 22.1953C123.312 22.6484 123.296 22.9844 123.265 23.2031L123.405 30.3867L118.132 30.668V29.9531C117.272 30.3047 116.405 30.4805 115.53 30.4805C114.858 30.4805 114.226 30.3789 113.632 30.1758C113.046 29.9727 112.538 29.6992 112.108 29.3555C111.413 28.7773 110.87 28 110.48 27.0234C110.089 26.0391 109.894 25 109.894 23.9062C109.894 22.0234 110.437 20.5039 111.522 19.3477C112.46 18.3633 113.425 17.6172 114.417 17.1094C115.417 16.6016 116.437 16.3477 117.476 16.3477C117.765 16.3477 117.983 16.3555 118.132 16.3711L118.026 7.14844Z" stroke="#2E3553" stroke-width="6" mask="url(#path-1-outside-1_124_1301)"/>
<path d="M136.395 23.5195L139.22 26.9297C138.993 27.5859 138.454 28.1875 137.602 28.7344C136.759 29.2812 135.751 29.7109 134.579 30.0234C133.415 30.3438 132.251 30.5039 131.087 30.5039C130.055 30.5039 129.134 30.3672 128.321 30.0938C127.516 29.8203 126.895 29.4062 126.458 28.8516C125.7 27.8984 125.321 26.6797 125.321 25.1953C125.321 24.0234 125.532 22.8711 125.954 21.7383C126.384 20.5977 126.837 19.8008 127.313 19.3477C127.884 18.8086 128.501 18.3594 129.165 18C129.837 17.6406 130.532 17.3711 131.251 17.1914C131.97 17.0117 132.708 16.9219 133.466 16.9219C134.458 16.9219 135.399 17.082 136.29 17.4023C137.188 17.7148 137.973 18.1719 138.645 18.7734L132.212 26.4492C132.782 26.4492 133.321 26.332 133.829 26.0977C134.345 25.8555 134.817 25.5156 135.247 25.0781C135.677 24.6328 136.059 24.1133 136.395 23.5195ZM133.149 20.7891C132.766 20.5938 132.376 20.4961 131.977 20.4961C131.555 20.4961 131.145 20.582 130.747 20.7539C130.356 20.9258 130.079 21.1289 129.915 21.3633C129.43 21.9883 129.188 22.6758 129.188 23.4258C129.188 23.6992 129.216 23.9609 129.27 24.2109C129.325 24.4609 129.419 24.8047 129.552 25.2422L133.149 20.7891Z" stroke="#2E3553" stroke-width="6" mask="url(#path-1-outside-1_124_1301)"/>
<path d="M149.233 27.7734L146.397 31.4414L140.35 31.6289L146.21 23.8828L139.588 15.3164L146.01 15.5977L149.233 19.8516L152.444 15.5977L158.878 15.3164L152.256 23.8828L158.116 31.6289L152.057 31.4414L149.233 27.7734Z" stroke="#2E3553" stroke-width="6" mask="url(#path-1-outside-1_124_1301)"/>
</svg>
